<?xml version="1.0" encoding="UTF-8"?>
<svg xmlns="http://www.w3.org/2000/svg" version="1.1" viewBox="0 0 952 287.7">
  <!-- Generator: Adobe Illustrator 30.0.0, SVG Export Plug-In . SVG Version: 2.1.1 Build 123)  -->
  <defs>
    <style>
      .st0, .st1 {
        stroke: #000;
      }

      .st0, .st1, .st2 {
        stroke-miterlimit: 10;
      }

      .st0, .st2 {
        fill: none;
      }

      .st2 {
        stroke: #231f20;
      }
    </style>
  </defs>
  <g id="Layer_1">
    <path class="st2" d="M62.6,38.15c-4.78-.28-8.89,3.36-9.18,8.15-.36,5.98,4.2,11.12,10.18,11.47,7.47.44,13.89-5.25,14.34-12.73.56-9.34-6.57-17.37-15.91-17.92-11.68-.7-21.71,8.21-22.41,19.89-.87,14.6,10.26,27.14,24.86,28.01,18.25,1.09,33.92-12.83,35.01-31.07C100.85,21.13,83.46,1.54,60.65.18,32.14-1.52,9.64,8.74,7.95,37.26"/>
    <path class="st2" d="M62.6,249.32c-4.78.28-8.89-3.36-9.18-8.15-.36-5.98,4.2-11.12,10.18-11.47,7.47-.44,13.89,5.25,14.34,12.73.56,9.34-6.57,17.37-15.91,17.92-11.68.7-21.71-8.21-22.41-19.89-.87-14.6,10.26-27.14,24.86-28.01,18.25-1.09,33.92,12.83,35.01,31.07,1.36,22.81-16.03,42.4-38.84,43.76-28.51,1.7-51.01-8.56-52.71-37.08"/>
    <polygon class="st2" points="7.95 37.26 2 37.26 2 55.25 2 232.22 2 250.22 7.95 250.22 7.95 37.26"/>
    <path class="st2" d="M891.4,38.38c4.78-.28,8.89,3.36,9.18,8.15.36,5.98-4.2,11.12-10.18,11.47-7.47.44-13.89-5.25-14.34-12.73-.56-9.34,6.57-17.37,15.91-17.92,11.68-.7,21.71,8.21,22.41,19.89.87,14.6-10.26,27.14-24.86,28.01-18.25,1.09-33.92-12.83-35.01-31.07-1.36-22.81,16.03-42.4,38.84-43.76,28.51-1.7,51.01,8.56,52.71,37.08"/>
    <path class="st2" d="M952,142.51"/>
    <path class="st2" d="M891.4,249.54c4.78.28,8.89-3.36,9.18-8.15.36-5.98-4.2-11.12-10.18-11.47-7.47-.44-13.89,5.25-14.34,12.73-.56,9.34,6.57,17.37,15.91,17.92,11.68.7,21.71-8.21,22.41-19.89.87-14.6-10.26-27.14-24.86-28.01-18.25-1.09-33.92,12.83-35.01,31.07-1.36,22.81,16.03,42.4,38.84,43.76,28.51,1.7,51.01-8.56,52.71-37.08"/>
    <path class="st2" d="M68.9,74.95v137.57c11.26.82,21.07,7.32,26.4,16.8h763.53c5.21-9.1,14.57-15.41,25.37-16.49V75.09c-10.8-1.09-20.16-7.39-25.37-16.49H95.05c-5.38,9.24-15.06,15.54-26.15,16.35Z"/>
    <polygon class="st2" points="946.05 37.48 952 37.48 952 55.48 952 232.44 952 250.44 946.05 250.44 946.05 37.48"/>
    <path class="st2" d="M77.43,58.6"/>
  </g>
  <g id="Layer_2">
    <g>
      <path class="st1" d="M106.85,96.2v-6.3h37.36c17.11,0,29.04,1.08,35.79,3.23,9.95,3.15,18.03,9.03,24.23,17.63,6.85,9.5,10.28,20.43,10.28,32.79,0,8.4-1.69,16.22-5.06,23.45-3.38,7.23-7.82,13.04-13.32,17.44-4.55,3.7-10.03,6.32-16.43,7.84-6.4,1.53-12.86,2.29-19.36,2.29h-53.49v-6.3h4.35l1.43.07c1.85,0,3.36-.38,4.54-1.12,1.17-.75,2.01-1.75,2.51-3,.35-.95.53-3.15.53-6.6v-70c0-3.98-.25-6.54-.75-7.7-.7-1.56-1.83-2.64-3.38-3.25-.9-.3-3.98-.45-9.23-.45ZM134.08,186.53h22.68c2.25,0,6-.4,11.23-1.2,5.23-.8,8.98-1.78,11.23-2.93,3.3-1.7,6.51-4.44,9.61-8.22,3.1-3.78,5.5-8.31,7.17-13.59,1.68-5.28,2.52-11.33,2.52-18.13s-.84-12.61-2.52-17.57c-1.68-4.96-4.21-9.41-7.59-13.37-3.38-3.96-7.14-6.97-11.27-9.05-4.13-2.08-8.75-3.39-13.86-3.94-2.75-.25-7.36-.38-13.82-.38h-15.4v88.38Z"/>
      <path class="st1" d="M228.54,89.9h40.06v6.3h-3.08c-2.9,0-5,.4-6.3,1.21-1.3.81-2.25,1.95-2.85,3.43-.6,1.48-.9,4.36-.9,8.64v67.45c0,3.4.32,5.81.98,7.24.65,1.42,1.56,2.46,2.74,3.11,1.17.65,3.29.98,6.34.98h3.08v6.3h-40.06v-6.3h3.3c2.95,0,5.04-.34,6.26-1.01,1.23-.67,2.11-1.65,2.66-2.93.55-1.28.83-3.74.83-7.39v-69.02c0-3.88-.28-6.48-.83-7.82-.55-1.33-1.44-2.32-2.66-2.94-1.23-.63-3.31-.94-6.26-.94h-3.3v-6.3Z"/>
      <path class="st1" d="M364.43,89.9h5.47l8.55,32.26-6.75,2.33c-4.5-10.2-9.68-17.48-15.53-21.83-5.85-4.35-12.48-6.53-19.88-6.53-10.65,0-19.58,4.43-26.78,13.28s-10.8,19.41-10.8,31.66c0,8.8,1.84,16.88,5.52,24.23,3.68,7.35,8.6,12.95,14.76,16.81s12.69,5.78,19.6,5.78c4.46,0,8.7-.81,12.73-2.44,4.03-1.62,7.3-3.56,9.8-5.82,1.85-1.7,3.1-3.58,3.75-5.63.65-2.05.95-4.9.9-8.55v-4.95c0-3.95-.46-6.75-1.39-8.4-.93-1.65-2.24-2.83-3.94-3.53-1.3-.55-4.8-.83-10.5-.83v-6.3h42.39v6.3h-3.45c-2.95,0-4.96.29-6.04.86-1.08.58-1.86,1.46-2.36,2.66-.5,1.2-.75,3.55-.75,7.05v36.24h-7.43l-3.98-9.15c-4.2,3.05-8.68,5.43-13.43,7.13-7.1,2.55-14.13,3.83-21.08,3.83-14.06,0-26.1-5.16-36.12-15.49-10.03-10.33-15.04-23.19-15.04-38.6s5.08-28.16,15.23-38.56c10.15-10.4,22.31-15.61,36.46-15.61,3.55,0,7.05.35,10.5,1.05,3.45.7,6.6,1.7,9.45,3,2.15.95,4.65,2.5,7.5,4.65l2.64-6.9Z"/>
      <path class="st1" d="M403.65,89.9h40.06v6.3h-3.08c-2.9,0-5,.4-6.3,1.21-1.3.81-2.25,1.95-2.85,3.43-.6,1.48-.9,4.36-.9,8.64v67.45c0,3.4.32,5.81.98,7.24.65,1.42,1.56,2.46,2.74,3.11,1.17.65,3.29.98,6.34.98h3.08v6.3h-40.06v-6.3h3.3c2.95,0,5.04-.34,6.26-1.01,1.23-.67,2.11-1.65,2.66-2.93.55-1.28.83-3.74.83-7.39v-69.02c0-3.88-.28-6.48-.83-7.82-.55-1.33-1.44-2.32-2.66-2.94-1.23-.63-3.31-.94-6.26-.94h-3.3v-6.3Z"/>
      <path class="st1" d="M459.17,86.37h5.25l.75,3.53h64.22l.6-3.53h5.48l11.03,30.76-6.75,2.4c-3.25-8.2-7.1-13.97-11.55-17.29-4.45-3.33-10.15-4.99-17.11-4.99-2.9,0-4.63.11-5.18.34s-.94.61-1.16,1.16c-.22.55-.34,2.3-.34,5.25v72.62c0,3.45.19,5.78.56,6.98.38,1.2.91,2.13,1.61,2.78.7.65,1.66,1.11,2.89,1.39,1.22.28,3.96.44,8.21.49v6.3h-40.36v-6.3c4.45-.05,7.18-.2,8.18-.45,1.75-.5,3-1.46,3.75-2.87.75-1.41,1.12-4,1.12-7.78v-74.13c0-2.3-.11-3.7-.34-4.2s-.65-.89-1.28-1.16c-.63-.27-1.91-.41-3.86-.41-5.45,0-9.82.7-13.09,2.1-3.28,1.4-6.37,3.78-9.27,7.13-2.9,3.35-5.38,7.7-7.43,13.05l-6.75-2.4,10.8-30.76Z"/>
      <path class="st1" d="M551.15,89.9h40.06v6.3h-3.08c-2.9,0-5,.4-6.3,1.21-1.3.81-2.25,1.95-2.85,3.43-.6,1.48-.9,4.36-.9,8.64v67.45c0,3.4.32,5.81.97,7.24.65,1.42,1.56,2.46,2.74,3.11,1.17.65,3.29.98,6.34.98h3.08v6.3h-40.06v-6.3h3.3c2.95,0,5.04-.34,6.26-1.01,1.23-.67,2.11-1.65,2.66-2.93.55-1.28.83-3.74.83-7.39v-69.02c0-3.88-.28-6.48-.83-7.82-.55-1.33-1.44-2.32-2.66-2.94-1.23-.63-3.31-.94-6.26-.94h-3.3v-6.3Z"/>
      <path class="st1" d="M604.5,89.9h33.06l30.9,82.9,30.18-82.9h31.9v6.3h-2.7c-3.25,0-5.44.28-6.56.83-1.12.55-2.01,1.52-2.66,2.91-.65,1.39-.98,3.66-.98,6.84v69.02c0,4.35.26,7.18.79,8.48s1.4,2.29,2.63,2.96c1.22.68,3.49,1.01,6.79,1.01h2.7v6.3h-39.99v-6.3h2.85c2.55,0,4.41-.2,5.59-.6,1.17-.4,2.15-1.06,2.93-1.99.77-.92,1.21-1.89,1.31-2.89.25-2.05.38-3.65.38-4.8v-77.05l-34.18,93.63h-7.5l-34.4-92.28v74.13c0,3.78.33,6.33.98,7.66.65,1.33,1.66,2.37,3.04,3.09,1.38.73,3.84,1.1,7.39,1.1h2.4v6.3h-36.84v-6.3h2.1c3.55,0,6.09-.38,7.61-1.13,1.53-.75,2.61-1.81,3.26-3.19.65-1.38.98-4.09.98-8.14v-68.35c0-3.83-.28-6.36-.83-7.59-.55-1.23-1.46-2.15-2.74-2.76-1.28-.6-3.54-.91-6.79-.91h-3.6v-6.3Z"/>
      <path class="st1" d="M745.99,89.9h85.08l9.83,27.53-6.6,2.48c-1.65-4.5-3.46-8.04-5.41-10.62-1.95-2.58-4.29-4.76-7.02-6.56-2.73-1.8-5.48-3-8.26-3.6s-7.8-.9-15.06-.9h-25.39v38.34h12.64c4.66,0,8.19-.79,10.57-2.36,2.38-1.58,4.02-3.54,4.93-5.89.7-1.75,1.05-4.8,1.05-9.15v-1.73h7.35v45.92h-7.35v-3.98c0-3.5-.26-6.03-.79-7.58-.53-1.55-1.49-3.01-2.9-4.39-1.4-1.38-2.92-2.31-4.55-2.81-1.63-.5-4.4-.75-8.31-.75h-12.64v34c0,3.54.16,5.71.49,6.48.33.77.86,1.33,1.62,1.68.75.35,2.8.52,6.16.52h15.7c8.77,0,15.62-1.05,20.55-3.15,4.93-2.1,9.28-5.32,13.03-9.66,2.95-3.39,5.78-8.17,8.48-14.35l6.83,2.4-11.7,32.79h-88.31v-6.3h3c3.5,0,5.68-.22,6.53-.67,1.3-.64,2.3-1.69,3-3.13.5-.99.75-3.15.75-6.48v-72.1c0-3.28-.33-5.47-.97-6.58-.65-1.11-1.78-1.97-3.38-2.57-.85-.35-3.83-.53-8.93-.53v-6.3Z"/>
    </g>
    <g>
      <line class="st0" x1="99.57" y1="58.95" x2="858.87" y2="58.95"/>
      <line class="st0" x1="87.33" y1="67.4" x2="866.16" y2="67.4"/>
      <line class="st0" x1="68.9" y1="75.85" x2="884.2" y2="75.85"/>
      <line class="st0" x1="69.09" y1="84.3" x2="884.2" y2="84.3"/>
      <line class="st0" x1="69.09" y1="92.75" x2="884.2" y2="92.75"/>
      <line class="st0" x1="68.9" y1="101.2" x2="884.2" y2="101.2"/>
      <line class="st0" x1="68.9" y1="109.66" x2="884.2" y2="109.66"/>
      <line class="st0" x1="68.9" y1="118.11" x2="884.2" y2="118.11"/>
      <line class="st0" x1="68.9" y1="126.95" x2="884.2" y2="126.95"/>
      <line class="st0" x1="68.9" y1="135.4" x2="884.2" y2="135.4"/>
      <line class="st0" x1="68.9" y1="143.85" x2="884.2" y2="143.85"/>
      <line class="st0" x1="68.9" y1="152.3" x2="884.2" y2="152.3"/>
      <line class="st0" x1="68.9" y1="160.76" x2="884.2" y2="160.76"/>
      <line class="st0" x1="68.9" y1="169.21" x2="884.2" y2="169.21"/>
      <line class="st0" x1="68.9" y1="177.66" x2="884.2" y2="177.66"/>
      <line class="st0" x1="68.9" y1="186.11" x2="884.2" y2="186.11"/>
      <line class="st0" x1="68.9" y1="194.56" x2="884.2" y2="194.56"/>
      <line class="st0" x1="68.9" y1="203.01" x2="884.2" y2="203.01"/>
      <line class="st0" x1="69.09" y1="211.46" x2="884.22" y2="211.46"/>
      <line class="st0" x1="86.74" y1="219.91" x2="867.12" y2="219.91"/>
      <line class="st0" x1="94.77" y1="228.36" x2="859.49" y2="228.36"/>
    </g>
  </g>
</svg>